<?xml version="1.0" encoding="UTF-8" standalone="no"?>
<svg
   xmlns:dc="http://purl.org/dc/elements/1.1/"
   xmlns:cc="http://creativecommons.org/ns#"
   xmlns:rdf="http://www.w3.org/1999/02/22-rdf-syntax-ns#"
   xmlns:svg="http://www.w3.org/2000/svg"
   xmlns="http://www.w3.org/2000/svg"
   xmlns:sodipodi="http://sodipodi.sourceforge.net/DTD/sodipodi-0.dtd"
   xmlns:inkscape="http://www.inkscape.org/namespaces/inkscape"
   width="159"
   height="49"
   viewBox="0 0 159 49"
   fill="none"
   version="1.1"
   id="svg65"
   sodipodi:docname="ergo_logo.svg"
   inkscape:version="1.0.2 (e86c870879, 2021-01-15)">
  <metadata
     id="metadata69">
    <rdf:RDF>
      <cc:Work
         rdf:about="">
        <dc:format>image/svg+xml</dc:format>
        <dc:type
           rdf:resource="http://purl.org/dc/dcmitype/StillImage" />
      </cc:Work>
    </rdf:RDF>
  </metadata>
  <sodipodi:namedview
     pagecolor="#ffffff"
     bordercolor="#666666"
     borderopacity="1"
     objecttolerance="10"
     gridtolerance="10"
     guidetolerance="10"
     inkscape:pageopacity="0"
     inkscape:pageshadow="2"
     inkscape:window-width="2054"
     inkscape:window-height="1046"
     id="namedview67"
     showgrid="false"
     inkscape:zoom="12.203151"
     inkscape:cx="62.675562"
     inkscape:cy="17.3736"
     inkscape:window-x="1055"
     inkscape:window-y="361"
     inkscape:window-maximized="0"
     inkscape:current-layer="svg65" />
  <path
     d="M66.2417 27.3517C66.4762 29.2564 67.0989 30.6264 68.1099 31.4616C69.1209 32.2821 70.3663 32.6923 71.8461 32.6923C72.9157 32.6923 73.9487 32.5165 74.945 32.1649C75.9414 31.8132 76.9011 31.3443 77.8242 30.7583L80.6154 34.5385C79.5165 35.4762 78.1831 36.2454 76.6154 36.8462C75.0623 37.4469 73.2894 37.7473 71.2967 37.7473C68.63 37.7473 66.3956 37.2198 64.5934 36.1649C62.7912 35.0953 61.4359 33.6301 60.5275 31.7693C59.619 29.9084 59.1648 27.7693 59.1648 25.3517C59.1648 23.0513 59.6044 20.9634 60.4835 19.0879C61.3626 17.1978 62.6447 15.696 64.3297 14.5824C66.0293 13.4542 68.1026 12.8901 70.5494 12.8901C72.7765 12.8901 74.7033 13.3663 76.3297 14.3187C77.9707 15.2711 79.2381 16.641 80.1319 18.4286C81.0403 20.2161 81.4945 22.3627 81.4945 24.8682C81.4945 25.2638 81.4798 25.6887 81.4505 26.1429C81.4359 26.5971 81.4066 27 81.3626 27.3517H66.2417ZM70.5494 17.5495C69.304 17.5495 68.3004 17.9964 67.5385 18.8901C66.7765 19.7839 66.315 21.2125 66.1538 23.1758H74.7253C74.7106 21.4762 74.3809 20.1136 73.7363 19.0879C73.0916 18.0623 72.0293 17.5495 70.5494 17.5495Z"
     fill="#272727"
     id="path2" />
  <path
     d="M85.9169 37V32.3407H88.9938V18.2747H85.9169V13.6594H94.2905L95.5652 18.9121C96.4004 16.9048 97.4627 15.4103 98.7521 14.4286C100.056 13.4469 101.646 12.9561 103.521 12.9561C104.312 12.9561 105.016 13.022 105.631 13.1539C106.247 13.2711 106.825 13.4396 107.367 13.6594L106.071 23.4176H101.719V19.1099C100.4 19.3443 99.2429 20.0623 98.2466 21.2638C97.2502 22.4506 96.481 23.9158 95.9389 25.6594V32.3407H100.554V37H85.9169Z"
     fill="#272727"
     id="path4" />
  <path
     d="M131.9 9.9231L133.526 15.022C132.706 15.3443 131.746 15.5788 130.647 15.7253C129.548 15.8718 128.266 15.9451 126.801 15.9451C128.266 16.5751 129.38 17.359 130.141 18.2967C130.918 19.2198 131.306 20.4359 131.306 21.9451C131.306 23.4542 130.903 24.8022 130.098 25.989C129.292 27.1612 128.149 28.0843 126.669 28.7583C125.189 29.4323 123.438 29.7693 121.416 29.7693C120.449 29.7693 119.548 29.6813 118.713 29.5055C118.2 29.7693 117.944 30.2161 117.944 30.8462C117.944 31.2125 118.09 31.5421 118.383 31.8352C118.691 32.1282 119.402 32.2747 120.515 32.2747H124.339C127.05 32.2747 129.211 32.9121 130.823 34.1868C132.435 35.4616 133.24 37.0733 133.24 39.022C133.24 41.4103 132.193 43.2931 130.098 44.6703C128.002 46.0476 124.889 46.7363 120.757 46.7363C117.768 46.7363 115.453 46.4286 113.812 45.8132C112.185 45.2125 111.05 44.348 110.405 43.2198C109.775 42.1062 109.46 40.7802 109.46 39.2418H115.614C115.614 39.9158 115.746 40.4652 116.01 40.8901C116.288 41.3297 116.808 41.652 117.57 41.8572C118.347 42.0623 119.467 42.1649 120.933 42.1649C122.413 42.1649 123.541 42.0476 124.317 41.8132C125.094 41.5788 125.621 41.2564 125.9 40.8462C126.193 40.4506 126.339 40.0037 126.339 39.5055C126.339 38.8169 126.068 38.2601 125.526 37.8352C124.984 37.4103 124.127 37.1978 122.955 37.1978H119.24C116.72 37.1978 114.889 36.7363 113.746 35.8132C112.603 34.8755 112.032 33.7839 112.032 32.5385C112.032 31.674 112.259 30.8535 112.713 30.0769C113.182 29.3004 113.834 28.6484 114.669 28.1209C113.174 27.3297 112.105 26.3993 111.46 25.3297C110.815 24.2454 110.493 22.9487 110.493 21.4396C110.493 19.6813 110.94 18.1722 111.834 16.9121C112.728 15.6374 113.958 14.6557 115.526 13.9671C117.109 13.2784 118.911 12.9341 120.933 12.9341C122.676 12.9634 124.193 12.8462 125.482 12.5824C126.772 12.3041 127.929 11.9304 128.955 11.4616C129.98 10.978 130.962 10.4652 131.9 9.9231ZM121.109 17.4396C120.01 17.4396 119.138 17.7912 118.493 18.4945C117.848 19.1832 117.526 20.1356 117.526 21.3517C117.526 22.641 117.856 23.6301 118.515 24.3187C119.174 25.0073 120.039 25.3517 121.109 25.3517C123.482 25.3517 124.669 23.989 124.669 21.2638C124.669 18.7143 123.482 17.4396 121.109 17.4396Z"
     fill="#272727"
     id="path6" />
  <path
     d="M146.762 12.8901C149.165 12.8901 151.209 13.403 152.894 14.4286C154.579 15.4542 155.868 16.8975 156.762 18.7583C157.655 20.6044 158.102 22.7729 158.102 25.2638C158.102 29.1612 157.106 32.2161 155.113 34.4286C153.121 36.641 150.337 37.7473 146.762 37.7473C143.187 37.7473 140.403 36.6557 138.41 34.4725C136.417 32.2894 135.421 29.2345 135.421 25.3077C135.421 22.8315 135.868 20.663 136.762 18.8022C137.67 16.9414 138.967 15.4909 140.652 14.4506C142.351 13.4103 144.388 12.8901 146.762 12.8901ZM146.762 18.011C145.34 18.011 144.285 18.5971 143.597 19.7693C142.923 20.9268 142.586 22.7729 142.586 25.3077C142.586 27.8865 142.923 29.7546 143.597 30.9121C144.285 32.0696 145.34 32.6484 146.762 32.6484C148.183 32.6484 149.231 32.0696 149.905 30.9121C150.593 29.7546 150.937 27.8718 150.937 25.2638C150.937 22.7436 150.593 20.9048 149.905 19.7473C149.231 18.5898 148.183 18.011 146.762 18.011Z"
     fill="#272727"
     id="path8" />
  <ellipse
     cx="24.1758"
     cy="24.5878"
     rx="24.1758"
     ry="23.9313"
     fill="url(#paint0_linear)"
     id="ellipse10" />
  <path
     fill-rule="evenodd"
     clip-rule="evenodd"
     d="M24.1758 47.2428C36.8157 47.2428 47.0623 37.0998 47.0623 24.5878C47.0623 12.0758 36.8157 1.93283 24.1758 1.93283C11.536 1.93283 1.28938 12.0758 1.28938 24.5878C1.28938 37.0998 11.536 47.2428 24.1758 47.2428ZM24.1758 48.5191C37.5278 48.5191 48.3516 37.8047 48.3516 24.5878C48.3516 11.3709 37.5278 0.656494 24.1758 0.656494C10.8239 0.656494 0 11.3709 0 24.5878C0 37.8047 10.8239 48.5191 24.1758 48.5191Z"
     fill="white"
     id="path12"
     style="fill:#ffffff;fill-opacity:1" />
  <path
     d="M12.8866 27.8591C12.8866 26.2519 11.5893 24.9489 9.98903 24.9489C8.38873 24.9489 7.09143 26.2519 7.09143 27.8591C7.09143 29.4664 8.38873 30.7694 9.98903 30.7694C11.5893 30.7694 12.8866 29.4664 12.8866 27.8591Z"
     fill="#1F5C8C"
     id="path14"
     style="fill:#1f5c8c;fill-opacity:1" />
  <path
     d="M41.3796 27.8591C41.3796 26.2519 40.0823 24.9489 38.482 24.9489C36.8817 24.9489 35.5844 26.2519 35.5844 27.8591C35.5844 29.4664 36.8817 30.7694 38.482 30.7694C40.0823 30.7694 41.3796 29.4664 41.3796 27.8591Z"
     fill="#1F5C8C"
     id="path16"
     style="fill:#1f5c8c;fill-opacity:1" />
  <path
     d="M19.6477 34.1646C19.6477 32.5574 18.3504 31.2544 16.7501 31.2544C15.1498 31.2544 13.8525 32.5574 13.8525 34.1646C13.8525 35.7719 15.1498 37.0749 16.7501 37.0749C18.3504 37.0749 19.6477 35.7719 19.6477 34.1646Z"
     fill="#1F5C8C"
     id="path18"
     style="fill:#1f5c8c;fill-opacity:1" />
  <path
     d="M19.6477 22.0387C19.6477 20.4314 18.3504 19.1284 16.7501 19.1284C15.1498 19.1284 13.8525 20.4314 13.8525 22.0387C13.8525 23.6459 15.1498 24.9489 16.7501 24.9489C18.3504 24.9489 19.6477 23.6459 19.6477 22.0387Z"
     fill="#1F5C8C"
     id="path20"
     style="fill:#1f5c8c;fill-opacity:1" />
  <path
     d="M15.7842 34.4072H17.716V22.7662H15.7842V34.4072Z"
     fill="#1F5C8C"
     id="path22" />
  <path
     d="M34.136 34.1646C34.136 32.5574 32.8387 31.2544 31.2384 31.2544C29.6381 31.2544 28.3408 32.5574 28.3408 34.1646C28.3408 35.7719 29.6381 37.0749 31.2384 37.0749C32.8387 37.0749 34.136 35.7719 34.136 34.1646Z"
     fill="#1F5C8C"
     id="path24"
     style="fill:#1f5c8c;fill-opacity:1" />
  <path
     d="M34.136 22.0387C34.136 20.4314 32.8387 19.1284 31.2384 19.1284C29.6381 19.1284 28.3408 20.4314 28.3408 22.0387C28.3408 23.6459 29.6381 24.9489 31.2384 24.9489C32.8387 24.9489 34.136 23.6459 34.136 22.0387Z"
     fill="#1F5C8C"
     id="path26" />
  <path
     d="M30.2726 34.4072H32.2043V22.7662H30.2726V34.4072Z"
     fill="#1F5C8C"
     id="path28" />
  <path
     d="M26.892 27.3741C26.892 25.7668 25.5947 24.4639 23.9944 24.4639C22.3941 24.4639 21.0968 25.7668 21.0968 27.3741C21.0968 28.9814 22.3941 30.2843 23.9944 30.2843C25.5947 30.2843 26.892 28.9814 26.892 27.3741Z"
     fill="#1F5C8C"
     id="path30"
     style="fill:#1f5c8c;fill-opacity:1" />
  <path
     d="M26.892 15.2481C26.892 13.6408 25.5947 12.3379 23.9944 12.3379C22.3941 12.3379 21.0968 13.6408 21.0968 15.2481C21.0968 16.8554 22.3941 18.1584 23.9944 18.1584C25.5947 18.1584 26.892 16.8554 26.892 15.2481Z"
     fill="#1F5C8C"
     id="path32"
     style="fill:#1f5c8c;fill-opacity:1" />
  <path
     d="M23.0286 27.6166H24.9603V15.9757H23.0286V27.6166Z"
     fill="#1F5C8C"
     id="path34" />
  <path
     d="M12.8866 26.8591C12.8866 25.2519 11.5893 23.9489 9.98903 23.9489C8.38873 23.9489 7.09143 25.2519 7.09143 26.8591C7.09143 28.4664 8.38873 29.7694 9.98903 29.7694C11.5893 29.7694 12.8866 28.4664 12.8866 26.8591Z"
     fill="white"
     id="path36"
     style="fill:#ffffff;fill-opacity:1" />
  <path
     d="M41.3796 26.8591C41.3796 25.2519 40.0823 23.9489 38.482 23.9489C36.8817 23.9489 35.5844 25.2519 35.5844 26.8591C35.5844 28.4664 36.8817 29.7694 38.482 29.7694C40.0823 29.7694 41.3796 28.4664 41.3796 26.8591Z"
     fill="white"
     id="path38"
     style="fill:#ffffff;fill-opacity:1" />
  <path
     d="M19.6477 33.1646C19.6477 31.5574 18.3504 30.2544 16.7501 30.2544C15.1498 30.2544 13.8525 31.5574 13.8525 33.1646C13.8525 34.7719 15.1498 36.0749 16.7501 36.0749C18.3504 36.0749 19.6477 34.7719 19.6477 33.1646Z"
     fill="white"
     id="path40" />
  <path
     d="M19.6477 21.0387C19.6477 19.4314 18.3504 18.1284 16.7501 18.1284C15.1498 18.1284 13.8525 19.4314 13.8525 21.0387C13.8525 22.6459 15.1498 23.9489 16.7501 23.9489C18.3504 23.9489 19.6477 22.6459 19.6477 21.0387Z"
     fill="white"
     id="path42"
     style="fill:#ffffff;fill-opacity:1" />
  <path
     d="M15.7842 33.4072H17.716V21.7662H15.7842V33.4072Z"
     fill="white"
     id="path44"
     style="fill:#ffffff;fill-opacity:1" />
  <path
     d="M26.892 26.3741C26.892 24.7668 25.5947 23.4639 23.9944 23.4639C22.3941 23.4639 21.0968 24.7668 21.0968 26.3741C21.0968 27.9814 22.3941 29.2843 23.9944 29.2843C25.5947 29.2843 26.892 27.9814 26.892 26.3741Z"
     fill="white"
     id="path52"
     style="fill:#ffffff;fill-opacity:1" />
  <path
     d="M26.892 14.2481C26.892 12.6408 25.5947 11.3379 23.9944 11.3379C22.3941 11.3379 21.0968 12.6408 21.0968 14.2481C21.0968 15.8554 22.3941 17.1584 23.9944 17.1584C25.5947 17.1584 26.892 15.8554 26.892 14.2481Z"
     fill="white"
     id="path54"
     style="fill:#ffffff;fill-opacity:1" />
  <path
     d="M23.0286 26.6166H24.9603V14.9757H23.0286V26.6166Z"
     fill="white"
     id="path56"
     style="fill:#ffffff;fill-opacity:1" />
  <defs
     id="defs63">
    <linearGradient
       id="paint0_linear"
       x1="24.1758"
       y1="0.656494"
       x2="24.1758"
       y2="48.5191"
       gradientUnits="userSpaceOnUse">
      <stop
         stop-color="#50B6F5"
         id="stop58" />
      <stop
         offset="1"
         stop-color="#307BF1"
         id="stop60" />
    </linearGradient>
  </defs>
  <path
     d="M34.136 21.0387C34.136 19.4314 32.8387 18.1284 31.2384 18.1284C29.6381 18.1284 28.3408 19.4314 28.3408 21.0387C28.3408 22.6459 29.6381 23.9489 31.2384 23.9489C32.8387 23.9489 34.136 22.6459 34.136 21.0387Z"
     fill="white"
     id="path48"
     style="fill:#ffffff;fill-opacity:1" />
  <path
     d="M34.136 33.1646C34.136 31.5574 32.8387 30.2544 31.2384 30.2544C29.6381 30.2544 28.3408 31.5574 28.3408 33.1646C28.3408 34.7719 29.6381 36.0749 31.2384 36.0749C32.8387 36.0749 34.136 34.7719 34.136 33.1646Z"
     fill="white"
     id="path46"
     style="fill:#ffffff;fill-opacity:1" />
  <path
     d="M30.2726 33.4072H32.2043V21.7662H30.2726V33.4072Z"
     fill="white"
     id="path50"
     style="fill:#ffffff;fill-opacity:1" />
</svg>
